<?xml version="1.0" encoding="UTF-8"?>
<svg id="Capa_1" data-name="Capa 1" xmlns="http://www.w3.org/2000/svg" viewBox="0 0 1208.35 1120.7">
  <defs>
    <style>
      .cls-1 {
        fill: #fff;
      }
    </style>
  </defs>
  <path class="cls-1" d="M1125.39,519.59L645.35,44.45c-22.74-22.51-59.61-22.51-82.35,0L82.96,519.59c-22.74,22.51-22.74,59,0,81.51l480.04,475.15c22.74,22.51,59.61,22.51,82.35,0l480.04-475.15c22.74-22.51,22.74-59,0-81.51ZM912.95,548.31c-4.82,0-9.51-.52-14.07-1.4l-41.13,65.1c24.91,11.35,42.29,36.12,42.29,65.04,0,39.62-32.45,71.74-72.48,71.74-29.15,0-54.12-17.14-65.62-41.7l-60.45,8.06c-4.78,35.03-34.79,62.14-71.5,62.14-40.03,0-72.48-32.12-72.48-71.74,0-20.74,9.03-39.27,23.24-52.37l-120.04-168.6c-5.6,1.37-11.36,2.31-17.38,2.31s-11.7-.92-17.26-2.27l-78.82,99.2c12.72,12.93,20.62,30.52,20.62,49.99,0,39.62-32.45,71.74-72.48,71.74s-72.48-32.12-72.48-71.74,32.45-71.74,72.48-71.74c9.21,0,17.93,1.87,26.03,4.97l76.55-96.34c-16.42-13.15-27.13-33.01-27.13-55.54,0-39.62,32.45-71.74,72.48-71.74s72.48,32.12,72.48,71.74c0,22.59-10.76,42.5-27.25,55.65l118.84,166.92c7.15-2.34,14.65-3.91,22.59-3.91,32.67,0,59.96,21.53,69.01,50.93l56.11-7.48c0-.07-.02-.14-.02-.21,0-38.94,31.39-70.46,70.47-71.54l44.9-71.06c-18.09-13.04-29.98-34.03-29.98-57.88,0-39.62,32.45-71.74,72.48-71.74s72.48,32.12,72.48,71.74-32.45,71.74-72.48,71.74Z"/>
</svg>