<?xml version="1.0" encoding="UTF-8"?>
<svg id="Capa_1" data-name="Capa 1" xmlns="http://www.w3.org/2000/svg" viewBox="0 0 1924.76 513.97">
  <defs>
    <style>
      .cls-1 {
        fill: #fff;
      }
    </style>
  </defs>
  <g>
    <polygon class="cls-1" points="601.13 310.48 608.23 270 671.27 270 676.58 239.55 613.58 239.55 619.87 203.73 694.61 203.73 700.15 172.11 625.42 172.11 610.92 172.11 584.99 172.11 555.28 341.99 581.1 341.99 595.6 341.99 670.09 341.99 675.63 310.48 601.13 310.48"/>
    <path class="cls-1" d="M941.56,172.11h-28.53l-90.39,168.74-33.02-82.75,60.94-85.99h-47.74l-36.07,56.24-18.15-56.24h-44.32l32.65,82.49-62.59,87.39h48.33l37.02-57.29,18.86,57.29h88.17l15.17-31.74h54.79l4.06,31.74h42.08l-31.71-169.88h-9.55ZM896.99,278.63l28.11-58.81,7.53,58.81h-35.63Z"/>
    <path class="cls-1" d="M1137.76,231.03c-.63-12.37-3.44-23.1-8.43-32.2-4.99-9.1-11.98-16.18-20.98-21.23-9-5.06-19.9-7.7-32.71-7.93-12.02-.23-22.79,1.89-32.3,6.36-9.51,4.47-17.7,10.64-24.58,18.49-6.88,7.86-12.44,16.78-16.68,26.78-4.24,10-7.15,20.4-8.72,31.21l-1.3,9.22c-1.34,10.42-1.26,20.52.23,30.28,1.49,9.76,4.56,18.55,9.19,26.37,4.64,7.82,11,14.04,19.1,18.67,8.09,4.63,18.08,7.06,29.94,7.29,12.5.23,24.26-1.98,35.31-6.65,11.04-4.67,20.2-11.53,27.47-20.59,7.27-9.06,11.45-20.05,12.55-32.96l-39.49.47c-1.02,5.99-2.97,11.1-5.83,15.34-2.87,4.24-6.62,7.43-11.26,9.57-4.64,2.14-10.1,3.13-16.38,2.97-6.68-.23-11.59-2.1-14.73-5.6-3.14-3.5-5.15-7.88-6.01-13.13-.86-5.25-1.06-10.73-.59-16.45.47-5.72.98-10.87,1.53-15.46l1.18-9.57c.78-5.6,1.94-11.39,3.47-17.39,1.53-5.99,3.75-11.55,6.66-16.68,2.91-5.13,6.7-9.24,11.38-12.31,4.67-3.07,10.51-4.49,17.5-4.26,6.44.23,11.45,1.54,15.03,3.91,3.58,2.37,6.07,5.7,7.49,9.98,1.41,4.28,2,9.41,1.77,15.4l40.2.12Z"/>
    <polygon class="cls-1" points="1287.93 203.73 1293.47 172.11 1243.37 172.11 1203.06 172.11 1154.14 172.11 1148.49 203.73 1197.51 203.73 1173.24 341.99 1213.67 341.99 1237.85 203.73 1287.93 203.73"/>
    <path class="cls-1" d="M1422.72,196.08c-4.91-7.89-11.49-14.21-19.75-18.96-8.25-4.74-18.23-7.19-29.94-7.35-12.18-.23-23.18,1.89-33,6.36-9.82,4.47-18.35,10.68-25.58,18.61-7.23,7.93-13.09,16.98-17.57,27.13-4.48,10.15-7.5,20.75-9.07,31.79l-.83,6.88c-1.26,10.5-1.02,20.69.71,30.57,1.73,9.88,5.05,18.79,9.96,26.72,4.91,7.93,11.51,14.27,19.8,19.02,8.29,4.74,18.33,7.23,30.12,7.47,12.26.23,23.3-1.92,33.12-6.48,9.82-4.55,18.33-10.79,25.52-18.73,7.19-7.93,13-17.02,17.44-27.24,4.44-10.23,7.45-20.9,9.02-32.03l.83-6.88c1.25-10.34,1-20.44-.77-30.28-1.77-9.84-5.11-18.71-10.02-26.6ZM1392.6,253.31l-.94,7.23c-.71,5.6-1.99,11.47-3.83,17.62-1.85,6.14-4.4,11.86-7.66,17.15-3.26,5.29-7.37,9.55-12.32,12.78-4.95,3.23-10.93,4.69-17.92,4.37-6.52-.23-11.47-2.16-14.85-5.77-3.38-3.62-5.64-8.15-6.78-13.59-1.14-5.44-1.61-11.06-1.41-16.86.19-5.79.57-10.99,1.12-15.57l.95-7.23c.78-5.68,2.08-11.59,3.89-17.74,1.81-6.14,4.3-11.84,7.49-17.09,3.18-5.25,7.25-9.45,12.2-12.6,4.95-3.15,11-4.57,18.15-4.26,6.44.31,11.33,2.26,14.68,5.83,3.34,3.58,5.6,8.07,6.78,13.48,1.18,5.41,1.69,10.99,1.53,16.74-.16,5.76-.51,10.93-1.06,15.52Z"/>
    <path class="cls-1" d="M1634.73,182.2c-5.82-3.46-12.38-5.97-19.69-7.53-7.31-1.55-14.7-2.37-22.16-2.45l-57.76-.12-29.71,169.88h68.6c11.47.08,22.32-1.52,32.53-4.78,10.21-3.27,18.62-8.65,25.23-16.16,6.6-7.51,10.29-17.6,11.08-30.28.55-8.24-.85-15.11-4.18-20.59-3.34-5.48-8.07-9.59-14.2-12.31-1.28-.57-2.63-1.05-3.99-1.5,1.79-.51,3.56-1.06,5.28-1.71,7.62-2.84,13.85-7.23,18.68-13.18,4.83-5.95,7.52-13.71,8.07-23.28.55-8.79-.83-16.12-4.12-21.99-3.3-5.87-7.86-10.54-13.67-14ZM1591.59,203.84c4.48.08,8.35.72,11.61,1.92,3.26,1.21,5.64,3.19,7.13,5.95,1.49,2.76,1.89,6.55,1.18,11.38-.87,5.29-2.85,9.37-5.95,12.25-3.11,2.88-6.88,4.88-11.32,6.01-3.99,1.01-8.13,1.55-12.4,1.65l-18.71-.06,6.89-39.22,21.57.12ZM1603.26,290.3c-.79,4.67-2.54,8.5-5.25,11.49-2.71,2.99-6.05,5.19-10.02,6.59-3.97,1.4-8.19,2.14-12.67,2.22l-24.06-.08,7.16-40.74,29.76.1c4.16.23,7.48,1.21,9.96,2.92,2.48,1.71,4.13,4.06,4.95,7.06.82,2.99.88,6.48.18,10.44Z"/>
    <path class="cls-1" d="M1674.92,303.72c-5.89,0-10.96,1.93-15.21,5.78-4.24,3.85-6.29,8.77-6.13,14.76.16,5.76,2.34,10.4,6.54,13.94,4.21,3.54,9.1,5.27,14.68,5.19,5.89,0,10.96-1.92,15.21-5.77,4.24-3.85,6.29-8.77,6.13-14.76-.16-5.76-2.32-10.4-6.48-13.94-4.17-3.54-9.08-5.27-14.73-5.19Z"/>
    <polygon class="cls-1" points="1810.8 172.11 1758.37 295.55 1744.9 172.11 1701.05 172.11 1730.05 341.99 1743.96 341.99 1758.81 341.99 1774.02 341.99 1857.12 172.11 1810.8 172.11"/>
    <path class="cls-1" d="M1841.19,308.91c-4.17-3.54-9.08-5.27-14.73-5.19-5.89,0-10.96,1.93-15.21,5.78-4.24,3.85-6.29,8.77-6.13,14.76.16,5.76,2.34,10.4,6.54,13.94,4.21,3.54,9.1,5.27,14.68,5.19,5.89,0,10.96-1.92,15.21-5.77,4.24-3.85,6.29-8.77,6.13-14.76-.16-5.76-2.32-10.4-6.48-13.94Z"/>
  </g>
  <path class="cls-1" d="M488.4,240.8L297.76,52.1c-9.03-8.94-23.67-8.94-32.7,0L74.41,240.8c-9.03,8.94-9.03,23.43,0,32.37l190.64,188.7c9.03,8.94,23.67,8.94,32.7,0l190.64-188.7c9.03-8.94,9.03-23.43,0-32.37ZM404.03,252.21c-1.91,0-3.78-.2-5.59-.56l-16.33,25.85c9.89,4.51,16.8,14.34,16.8,25.83,0,15.73-12.89,28.49-28.78,28.49-11.58,0-21.49-6.81-26.06-16.56l-24.01,3.2c-1.9,13.91-13.82,24.68-28.4,24.68-15.9,0-28.78-12.76-28.78-28.49,0-8.24,3.58-15.6,9.23-20.8l-47.67-66.96c-2.22.54-4.51.92-6.9.92s-4.65-.37-6.85-.9l-31.3,39.4c5.05,5.13,8.19,12.12,8.19,19.85,0,15.74-12.89,28.49-28.78,28.49s-28.78-12.76-28.78-28.49,12.89-28.49,28.78-28.49c3.66,0,7.12.74,10.34,1.97l30.4-38.26c-6.52-5.22-10.77-13.11-10.77-22.06,0-15.74,12.89-28.49,28.78-28.49s28.78,12.76,28.78,28.49c0,8.97-4.27,16.88-10.82,22.1l47.2,66.29c2.84-.93,5.82-1.55,8.97-1.55,12.97,0,23.81,8.55,27.41,20.23l22.28-2.97s0-.06,0-.08c0-15.46,12.47-27.98,27.99-28.41l17.83-28.22c-7.19-5.18-11.91-13.51-11.91-22.99,0-15.73,12.89-28.49,28.78-28.49s28.78,12.76,28.78,28.49-12.89,28.49-28.78,28.49Z"/>
</svg>